<?xml version="1.0" encoding="utf-8"?>
<!-- Generator: Adobe Illustrator 26.0.1, SVG Export Plug-In . SVG Version: 6.00 Build 0)  -->
<svg version="1.1" id="Layer_1" xmlns="http://www.w3.org/2000/svg" xmlns:xlink="http://www.w3.org/1999/xlink" x="0px" y="0px"
	 viewBox="0 0 640 480" style="enable-background:new 0 0 640 480;" xml:space="preserve">
<path d="M173.917,330.029V138.301h19.032v172.695h64.096v19.033H173.917z"/>
<path d="M366.672,302.32h-90.126l-10.356,27.709h-18.427l75.851-197.606l73.847,197.606h-20.433L366.672,302.32z M282.703,286.645
	h77.811l-38.905-103.001L282.703,286.645z"/>
<path d="M438.147,301.371l52.9,28.659h-25.471l-52.62-27.819v27.819h-19.033V138.301h29.389c36.667,0,67.909,28.244,68.34,82.375
	C492.067,272.806,468.375,294.653,438.147,301.371z M423.311,157.334h-10.356v129.507h10.356c26.031,0,49.908-26.064,49.307-66.165
	C472.017,180.579,449.342,157.334,423.311,157.334z"/>
<path d="M591.213,302.32h-90.126l-10.358,27.709h-20.431l75.851-197.606L622,330.029h-20.431L591.213,302.32z M507.245,286.645
	h77.811l-38.906-103.001L507.245,286.645z"/>
<path d="M117.922,314.356c-44.223,0-80.05-35.827-80.05-80.051c0-44.223,35.827-80.33,80.05-80.33c7.718,0,15.19,1.105,22.273,3.15
	l7.022-18.294v-0.082c-9.246-2.834-19.078-4.366-29.295-4.366C62.783,134.383,18,179.166,18,234.305
	c0,55.14,44.783,99.642,99.922,99.642c27.71,0,52.62-11.196,70.533-29.109l-13.714-13.993
	C160.186,305.398,140.034,314.356,117.922,314.356z"/>
</svg>
